<svg width="20" height="20" viewBox="0 0 20 20" fill="none" xmlns="http://www.w3.org/2000/svg">
<path d="M12.9499 9.40845L8.23328 4.70011C8.15581 4.622 8.06364 4.56001 7.96209 4.5177C7.86054 4.4754 7.75162 4.45361 7.64161 4.45361C7.5316 4.45361 7.42268 4.4754 7.32113 4.5177C7.21958 4.56001 7.12741 4.622 7.04994 4.70011C6.89474 4.85625 6.80762 5.06746 6.80762 5.28761C6.80762 5.50777 6.89474 5.71898 7.04994 5.87511L11.1749 10.0418L7.04994 14.1668C6.89474 14.3229 6.80762 14.5341 6.80762 14.7543C6.80762 14.9744 6.89474 15.1856 7.04994 15.3418C7.12712 15.4205 7.21916 15.4832 7.32072 15.5261C7.42229 15.569 7.53135 15.5913 7.64161 15.5918C7.75187 15.5913 7.86094 15.569 7.9625 15.5261C8.06406 15.4832 8.1561 15.4205 8.23328 15.3418L12.9499 10.6334C13.0345 10.5554 13.102 10.4607 13.1482 10.3553C13.1944 10.2499 13.2182 10.136 13.2182 10.0209C13.2182 9.90586 13.1944 9.79202 13.1482 9.68661C13.102 9.58119 13.0345 9.48648 12.9499 9.40845Z" fill="#9E9EA4"/>
</svg>
