<svg width="16" height="16" viewBox="0 0 16 16" fill="none" xmlns="http://www.w3.org/2000/svg">
<g id="grommet-icons:location">
<path id="Vector" d="M8.00008 14.6666C8.00008 14.6666 2.66675 10.6666 2.66675 6.66658C2.66675 3.33325 5.33341 1.33325 8.00008 1.33325C10.6667 1.33325 13.3334 3.33325 13.3334 6.66658C13.3334 10.6666 8.00008 14.6666 8.00008 14.6666ZM8.00008 8.66658C8.53051 8.66658 9.03922 8.45587 9.4143 8.0808C9.78937 7.70573 10.0001 7.19702 10.0001 6.66658C10.0001 6.13615 9.78937 5.62744 9.4143 5.25237C9.03922 4.8773 8.53051 4.66659 8.00008 4.66659C7.46965 4.66659 6.96094 4.8773 6.58587 5.25237C6.21079 5.62744 6.00008 6.13615 6.00008 6.66658C6.00008 7.19702 6.21079 7.70573 6.58587 8.0808C6.96094 8.45587 7.46965 8.66658 8.00008 8.66658Z" stroke="#9E9EA4" stroke-width="2"/>
</g>
</svg>
