<svg width="14" height="14" viewBox="0 0 14 14" fill="none" xmlns="http://www.w3.org/2000/svg">
<path d="M6.29329 3.05329C6.52714 3.01745 6.76339 2.99962 6.99996 2.99996C9.11996 2.99996 11.1133 4.52663 12.2733 6.99996C12.0959 7.37636 11.8955 7.74149 11.6733 8.09329C11.6027 8.2025 11.5657 8.32995 11.5666 8.45996C11.5681 8.60545 11.6172 8.74646 11.7063 8.86148C11.7954 8.97649 11.9197 9.0592 12.0602 9.09697C12.2007 9.13474 12.3497 9.12551 12.4845 9.07068C12.6193 9.01585 12.7324 8.91843 12.8066 8.79329C13.1172 8.30525 13.3871 7.7924 13.6133 7.25996C13.6491 7.17678 13.6675 7.08718 13.6675 6.99663C13.6675 6.90608 13.6491 6.81648 13.6133 6.73329C12.2666 3.60663 9.73329 1.66663 6.99996 1.66663C6.68707 1.66505 6.37468 1.69183 6.06663 1.74663C5.97908 1.76151 5.89532 1.79349 5.82013 1.84075C5.74494 1.888 5.6798 1.9496 5.62842 2.02203C5.57704 2.09446 5.54042 2.1763 5.52067 2.26288C5.50092 2.34946 5.49841 2.43908 5.51329 2.52663C5.52818 2.61418 5.56016 2.69793 5.60741 2.77312C5.65467 2.84831 5.71627 2.91346 5.7887 2.96484C5.86112 3.01622 5.94297 3.05283 6.02954 3.07258C6.11612 3.09234 6.20575 3.09484 6.29329 3.07996V3.05329ZM1.47329 0.526627C1.41114 0.464468 1.33734 0.415161 1.25613 0.381521C1.17491 0.347881 1.08787 0.330566 0.999961 0.330566C0.912055 0.330566 0.825009 0.347881 0.743795 0.381521C0.66258 0.415161 0.588786 0.464468 0.526627 0.526627C0.401092 0.652163 0.330566 0.822426 0.330566 0.999961C0.330566 1.1775 0.401092 1.34776 0.526627 1.47329L2.59329 3.53329C1.65034 4.44098 0.899865 5.52929 0.386627 6.73329C0.349919 6.8174 0.330971 6.90819 0.330971 6.99996C0.330971 7.09173 0.349919 7.18252 0.386627 7.26663C1.73329 10.3933 4.26663 12.3333 6.99996 12.3333C8.19803 12.325 9.36781 11.9683 10.3666 11.3066L12.5266 13.4733C12.5886 13.5358 12.6623 13.5854 12.7436 13.6192C12.8248 13.6531 12.912 13.6705 13 13.6705C13.088 13.6705 13.1751 13.6531 13.2563 13.6192C13.3376 13.5854 13.4113 13.5358 13.4733 13.4733C13.5358 13.4113 13.5854 13.3376 13.6192 13.2563C13.6531 13.1751 13.6705 13.088 13.6705 13C13.6705 12.912 13.6531 12.8248 13.6192 12.7436C13.5854 12.6623 13.5358 12.5886 13.4733 12.5266L1.47329 0.526627ZM5.71329 6.65329L7.34663 8.28663C7.23395 8.31894 7.11717 8.33466 6.99996 8.33329C6.64634 8.33329 6.3072 8.19282 6.05715 7.94277C5.8071 7.69272 5.66663 7.35358 5.66663 6.99996C5.66526 6.88275 5.68098 6.76597 5.71329 6.65329ZM6.99996 11C4.87996 11 2.88663 9.47329 1.73329 6.99996C2.16402 6.04913 2.77534 5.19101 3.53329 4.47329L4.71329 5.66663C4.43613 6.17249 4.33045 6.75459 4.41213 7.3256C4.49381 7.89661 4.75844 8.42574 5.16631 8.83361C5.57419 9.24148 6.10331 9.50611 6.67432 9.58779C7.24533 9.66947 7.82743 9.5638 8.33329 9.28663L9.39329 10.3333C8.66736 10.7605 7.84224 10.9904 6.99996 11Z" fill="#9E9EA4"/>
</svg>
