<svg width="16" height="16" viewBox="0 0 16 16" fill="none" xmlns="http://www.w3.org/2000/svg">
<g id="material-symbols:cancel">
<path id="Vector" d="M5.60004 11.3333L8.00004 8.93325L10.4 11.3333L11.3334 10.3999L8.93337 7.99992L11.3334 5.59992L10.4 4.66659L8.00004 7.06659L5.60004 4.66659L4.66671 5.59992L7.06671 7.99992L4.66671 10.3999L5.60004 11.3333ZM8.00004 14.6666C7.07782 14.6666 6.21115 14.4915 5.40004 14.1413C4.58893 13.791 3.88337 13.3161 3.28337 12.7166C2.68337 12.1166 2.20849 11.411 1.85871 10.5999C1.50893 9.78881 1.33382 8.92214 1.33337 7.99992C1.33337 7.0777 1.50849 6.21103 1.85871 5.39992C2.20893 4.58881 2.68382 3.88325 3.28337 3.28325C3.88337 2.68325 4.58893 2.20836 5.40004 1.85859C6.21115 1.50881 7.07782 1.3337 8.00004 1.33325C8.92226 1.33325 9.78893 1.50836 10.6 1.85859C11.4112 2.20881 12.1167 2.6837 12.7167 3.28325C13.3167 3.88325 13.7918 4.58881 14.142 5.39992C14.4923 6.21103 14.6672 7.0777 14.6667 7.99992C14.6667 8.92214 14.4916 9.78881 14.1414 10.5999C13.7912 11.411 13.3163 12.1166 12.7167 12.7166C12.1167 13.3166 11.4112 13.7917 10.6 14.1419C9.78893 14.4921 8.92226 14.667 8.00004 14.6666Z" fill="#9E9EA4"/>
</g>
</svg>
