<svg width="24" height="18" viewBox="0 0 24 18" fill="none" xmlns="http://www.w3.org/2000/svg">
<path d="M23.1834 1.14168C23.0285 0.985465 22.8441 0.861474 22.641 0.776859C22.4379 0.692245 22.2201 0.648682 22.0001 0.648682C21.7801 0.648682 21.5622 0.692245 21.3591 0.776859C21.156 0.861474 20.9717 0.985465 20.8167 1.14168L8.40008 13.575L3.18341 8.34168C3.02254 8.18628 2.83264 8.06409 2.62455 7.98208C2.41646 7.90008 2.19425 7.85986 1.97062 7.86373C1.74698 7.8676 1.5263 7.91548 1.32117 8.00463C1.11604 8.09379 0.930476 8.22248 0.775079 8.38335C0.619681 8.54421 0.497491 8.73412 0.415485 8.94221C0.333478 9.1503 0.293261 9.37251 0.29713 9.59614C0.300999 9.81977 0.348879 10.0405 0.438034 10.2456C0.52719 10.4507 0.655876 10.6363 0.816746 10.7917L7.21675 17.1917C7.37169 17.3479 7.55602 17.4719 7.75912 17.5565C7.96222 17.6411 8.18006 17.6847 8.40008 17.6847C8.6201 17.6847 8.83794 17.6411 9.04104 17.5565C9.24414 17.4719 9.42848 17.3479 9.58341 17.1917L23.1834 3.59168C23.3526 3.43561 23.4876 3.24619 23.5799 3.03536C23.6723 2.82452 23.72 2.59685 23.72 2.36668C23.72 2.13651 23.6723 1.90883 23.5799 1.698C23.4876 1.48717 23.3526 1.29775 23.1834 1.14168Z" fill="url(#paint0_linear_1147_6313)"/>
<defs>
<linearGradient id="paint0_linear_1147_6313" x1="0.172585" y1="1.27502" x2="26.1627" y2="11.0438" gradientUnits="userSpaceOnUse">
<stop stop-color="#00FFC2"/>
<stop offset="1" stop-color="#E335FF"/>
</linearGradient>
</defs>
</svg>
