<svg width="14" height="14" viewBox="0 0 14 14" fill="none" xmlns="http://www.w3.org/2000/svg">
<path d="M10.3334 3.66659H3.66671C3.4899 3.66659 3.32033 3.73682 3.1953 3.86185C3.07028 3.98687 3.00004 4.15644 3.00004 4.33325C3.00004 4.51006 3.07028 4.67963 3.1953 4.80466C3.32033 4.92968 3.4899 4.99992 3.66671 4.99992H10.3334C10.5102 4.99992 10.6798 4.92968 10.8048 4.80466C10.9298 4.67963 11 4.51006 11 4.33325C11 4.15644 10.9298 3.98687 10.8048 3.86185C10.6798 3.73682 10.5102 3.66659 10.3334 3.66659ZM10.3334 6.33325H3.66671C3.4899 6.33325 3.32033 6.40349 3.1953 6.52851C3.07028 6.65354 3.00004 6.82311 3.00004 6.99992C3.00004 7.17673 3.07028 7.3463 3.1953 7.47132C3.32033 7.59635 3.4899 7.66659 3.66671 7.66659H10.3334C10.5102 7.66659 10.6798 7.59635 10.8048 7.47132C10.9298 7.3463 11 7.17673 11 6.99992C11 6.82311 10.9298 6.65354 10.8048 6.52851C10.6798 6.40349 10.5102 6.33325 10.3334 6.33325ZM11.6667 0.333252H2.33337C1.80294 0.333252 1.29423 0.543966 0.919161 0.919038C0.544088 1.29411 0.333374 1.80282 0.333374 2.33325V8.99992C0.333374 9.53035 0.544088 10.0391 0.919161 10.4141C1.29423 10.7892 1.80294 10.9999 2.33337 10.9999H10.06L12.5267 13.4733C12.589 13.535 12.6629 13.5839 12.7441 13.6171C12.8253 13.6503 12.9123 13.6671 13 13.6666C13.0875 13.6688 13.1743 13.6506 13.2534 13.6133C13.3751 13.5632 13.4793 13.4783 13.5529 13.3692C13.6264 13.26 13.6661 13.1315 13.6667 12.9999V2.33325C13.6667 1.80282 13.456 1.29411 13.0809 0.919038C12.7058 0.543966 12.1971 0.333252 11.6667 0.333252ZM12.3334 11.3933L10.8067 9.85992C10.7444 9.79813 10.6705 9.74925 10.5893 9.71607C10.5081 9.68289 10.4211 9.66608 10.3334 9.66659H2.33337C2.15656 9.66659 1.98699 9.59635 1.86197 9.47132C1.73695 9.3463 1.66671 9.17673 1.66671 8.99992V2.33325C1.66671 2.15644 1.73695 1.98687 1.86197 1.86185C1.98699 1.73682 2.15656 1.66659 2.33337 1.66659H11.6667C11.8435 1.66659 12.0131 1.73682 12.1381 1.86185C12.2631 1.98687 12.3334 2.15644 12.3334 2.33325V11.3933Z" fill="#9E9EA4"/>
</svg>
