<svg width="16" height="16" viewBox="0 0 16 16" fill="none" xmlns="http://www.w3.org/2000/svg">
<g id="uil:heart-fill">
<path id="Vector" d="M13.4401 3.33328C12.7334 2.62475 11.7966 2.19231 10.799 2.11406C9.80135 2.03581 8.80861 2.31692 8.0001 2.90661C7.15187 2.27571 6.0961 1.98962 5.04538 2.10597C3.99467 2.22232 3.02706 2.73247 2.33742 3.53367C1.64777 4.33488 1.28732 5.36763 1.32864 6.42396C1.36996 7.48029 1.80998 8.48173 2.5601 9.22661L6.7001 13.3733C7.04678 13.7145 7.51369 13.9057 8.0001 13.9057C8.48651 13.9057 8.95342 13.7145 9.3001 13.3733L13.4401 9.22661C14.2185 8.44346 14.6554 7.38413 14.6554 6.27995C14.6554 5.17577 14.2185 4.11644 13.4401 3.33328Z" fill="#9087F4"/>
</g>
</svg>
