<svg width="24" height="24" viewBox="0 0 24 24" fill="none" xmlns="http://www.w3.org/2000/svg">
<g id="uil:heart-fill">
<path id="Vector" d="M20.16 4.99992C19.0999 3.93713 17.6948 3.28846 16.1983 3.17109C14.7018 3.05372 13.2127 3.47539 12 4.35992C10.7276 3.41356 9.14396 2.98443 7.56789 3.15896C5.99182 3.33348 4.54041 4.0987 3.50594 5.30051C2.47148 6.50231 1.93079 8.05144 1.99277 9.63594C2.05475 11.2204 2.71479 12.7226 3.83997 13.8399L10.05 20.0599C10.57 20.5717 11.2704 20.8585 12 20.8585C12.7296 20.8585 13.43 20.5717 13.95 20.0599L20.16 13.8399C21.3275 12.6652 21.9829 11.0762 21.9829 9.41992C21.9829 7.76365 21.3275 6.17465 20.16 4.99992Z" fill="#9087F4"/>
</g>
</svg>
