<svg width="6" height="9" viewBox="0 0 6 9" fill="none" xmlns="http://www.w3.org/2000/svg">
<path d="M5.36003 4.02667L1.5867 0.260004C1.52472 0.197518 1.45099 0.147922 1.36975 0.114077C1.28851 0.0802308 1.20137 0.0628052 1.11336 0.0628052C1.02535 0.0628052 0.938217 0.0802308 0.856977 0.114077C0.775738 0.147922 0.702004 0.197518 0.640029 0.260004C0.515861 0.384912 0.446167 0.55388 0.446167 0.730004C0.446167 0.906128 0.515861 1.0751 0.640029 1.2L3.94003 4.53334L0.640029 7.83334C0.515861 7.95824 0.446167 8.12721 0.446167 8.30334C0.446167 8.47946 0.515861 8.64843 0.640029 8.77334C0.701772 8.83633 0.775402 8.88644 0.856652 8.92077C0.937902 8.9551 1.02516 8.97297 1.11336 8.97334C1.20157 8.97297 1.28882 8.9551 1.37007 8.92077C1.45132 8.88644 1.52495 8.83633 1.5867 8.77334L5.36003 5.00667C5.4277 4.94424 5.4817 4.86847 5.51864 4.78414C5.55558 4.69981 5.57465 4.60874 5.57465 4.51667C5.57465 4.4246 5.55558 4.33353 5.51864 4.2492C5.4817 4.16487 5.4277 4.0891 5.36003 4.02667Z" fill="#7E7E87"/>
</svg>
