<svg width="19" height="21" viewBox="0 0 19 21" fill="none" xmlns="http://www.w3.org/2000/svg">
<path d="M17.5 6.50001L11.5 1.24001C10.95 0.748051 10.2379 0.476074 9.5 0.476074C8.76207 0.476074 8.05003 0.748051 7.5 1.24001L1.5 6.50001C1.18237 6.78408 0.928903 7.13256 0.756475 7.52225C0.584047 7.91194 0.496616 8.33389 0.500003 8.76001V17.5C0.500003 18.2957 0.816074 19.0587 1.37868 19.6213C1.94129 20.1839 2.70435 20.5 3.5 20.5H15.5C16.2957 20.5 17.0587 20.1839 17.6213 19.6213C18.1839 19.0587 18.5 18.2957 18.5 17.5V8.75001C18.502 8.32557 18.4139 7.90555 18.2415 7.51769C18.0691 7.12983 17.8164 6.78296 17.5 6.50001ZM11.5 18.5H7.5V13.5C7.5 13.2348 7.60536 12.9804 7.7929 12.7929C7.98043 12.6054 8.23479 12.5 8.5 12.5H10.5C10.7652 12.5 11.0196 12.6054 11.2071 12.7929C11.3946 12.9804 11.5 13.2348 11.5 13.5V18.5ZM16.5 17.5C16.5 17.7652 16.3946 18.0196 16.2071 18.2071C16.0196 18.3946 15.7652 18.5 15.5 18.5H13.5V13.5C13.5 12.7044 13.1839 11.9413 12.6213 11.3787C12.0587 10.8161 11.2957 10.5 10.5 10.5H8.5C7.70435 10.5 6.94129 10.8161 6.37868 11.3787C5.81607 11.9413 5.5 12.7044 5.5 13.5V18.5H3.5C3.23479 18.5 2.98043 18.3946 2.7929 18.2071C2.60536 18.0196 2.5 17.7652 2.5 17.5V8.75001C2.50018 8.60802 2.5306 8.4677 2.58922 8.33839C2.64784 8.20907 2.73333 8.09372 2.84 8.00001L8.84 2.75001C9.02249 2.58969 9.2571 2.50127 9.5 2.50127C9.74291 2.50127 9.97751 2.58969 10.16 2.75001L16.16 8.00001C16.2667 8.09372 16.3522 8.20907 16.4108 8.33839C16.4694 8.4677 16.4998 8.60802 16.5 8.75001V17.5Z" fill="current"/>
</svg>
