<svg width="28" height="28" viewBox="0 0 28 28" fill="none" xmlns="http://www.w3.org/2000/svg">
<path d="M14 3.49402C7.71772 3.49402 2.625 7.5095 2.625 12.4628C2.625 15.6652 4.75409 18.4751 7.95681 20.0618C7.78258 20.6627 6.83714 23.9276 6.79952 24.1841C6.79952 24.1841 6.77688 24.3768 6.90167 24.4503C7.02647 24.5238 7.17325 24.4667 7.17325 24.4667C7.53113 24.4167 11.3233 21.753 11.9796 21.2904C12.6353 21.3833 13.3105 21.4315 14 21.4315C20.2823 21.4315 25.375 17.4161 25.375 12.4628C25.375 7.5095 20.2823 3.49402 14 3.49402Z" fill="#371D1E"/>
<path d="M7.71094 15.5936C7.34902 15.5936 7.05469 15.3125 7.05469 14.9669V11.0682H6.03072C5.67558 11.0682 5.38672 10.7799 5.38672 10.4257C5.38672 10.0714 5.67569 9.78308 6.03072 9.78308H9.39116C9.7463 9.78308 10.0352 10.0714 10.0352 10.4257C10.0352 10.7799 9.74619 11.0682 9.39116 11.0682H8.36719V14.9669C8.36719 15.3125 8.07286 15.5936 7.71094 15.5936ZM13.4654 15.5851C13.1917 15.5851 12.9824 15.474 12.9193 15.2953L12.5943 14.4445L10.5932 14.4444L10.268 15.2957C10.2051 15.4741 9.99589 15.5851 9.72223 15.5851C9.57829 15.5852 9.436 15.5544 9.30508 15.4945C9.12417 15.4111 8.95027 15.1816 9.14955 14.5627L10.7193 10.4309C10.8299 10.1167 11.1658 9.79292 11.5932 9.78319C12.0218 9.79282 12.3577 10.1167 12.4685 10.4316L14.0376 14.5615C14.2373 15.1818 14.0634 15.4114 13.8825 15.4946C13.7516 15.5544 13.6093 15.5852 13.4654 15.5851C13.4654 15.5851 13.4653 15.5851 13.4654 15.5851ZM12.2492 13.2821L11.5938 11.42L10.9383 13.2821H12.2492ZM15.0938 15.4979C14.7469 15.4979 14.4648 15.228 14.4648 14.8964V10.4393C14.4648 10.0774 14.7654 9.78308 15.1348 9.78308C15.5041 9.78308 15.8047 10.0774 15.8047 10.4393V14.2948H17.1992C17.546 14.2948 17.8281 14.5647 17.8281 14.8964C17.8281 15.228 17.546 15.4979 17.1992 15.4979H15.0938ZM18.7397 15.5851C18.3777 15.5851 18.0834 15.2908 18.0834 14.9288V10.4393C18.0834 10.0774 18.3777 9.78308 18.7397 9.78308C19.1016 9.78308 19.3959 10.0774 19.3959 10.4393V11.8498L21.2268 10.0189C21.321 9.92472 21.4504 9.87288 21.5908 9.87288C21.7547 9.87288 21.9192 9.94353 22.0425 10.0667C22.1574 10.1815 22.226 10.3293 22.2354 10.4828C22.2449 10.6375 22.1934 10.7794 22.0906 10.8823L20.5951 12.3776L22.2105 14.5176C22.2626 14.5863 22.3006 14.6646 22.3222 14.748C22.3439 14.8315 22.3487 14.9184 22.3365 15.0038C22.3248 15.0892 22.2962 15.1714 22.2525 15.2457C22.2088 15.32 22.1508 15.3849 22.0818 15.4366C21.9683 15.5228 21.8296 15.5694 21.6871 15.569C21.5854 15.5695 21.485 15.5461 21.394 15.5008C21.303 15.4555 21.2238 15.3896 21.1629 15.3082L19.6238 13.269L19.3961 13.4967V14.9285C19.3959 15.1026 19.3267 15.2694 19.2036 15.3925C19.0806 15.5156 18.9137 15.5849 18.7397 15.5851Z" fill="#FAE100"/>
</svg>
