<svg width="14" height="12" viewBox="0 0 14 12" fill="none" xmlns="http://www.w3.org/2000/svg">
<path d="M12.44 1.33328C11.7333 0.624753 10.7965 0.192308 9.79887 0.114061C8.80123 0.0358141 7.80849 0.316925 6.99998 0.906614C6.15175 0.275706 5.09597 -0.0103783 4.04526 0.105972C2.99455 0.222323 2.02694 0.732466 1.3373 1.53367C0.647651 2.33488 0.287195 3.36763 0.328514 4.42396C0.369834 5.48029 0.809859 6.48173 1.55998 7.22661L5.69998 11.3733C6.04666 11.7145 6.51357 11.9057 6.99998 11.9057C7.48639 11.9057 7.9533 11.7145 8.29998 11.3733L12.44 7.22661C13.2184 6.44346 13.6553 5.38413 13.6553 4.27995C13.6553 3.17577 13.2184 2.11644 12.44 1.33328ZM11.5 6.30661L7.35998 10.4466C7.31287 10.4942 7.2568 10.5319 7.19501 10.5577C7.13322 10.5835 7.06693 10.5968 6.99998 10.5968C6.93303 10.5968 6.86674 10.5835 6.80495 10.5577C6.74316 10.5319 6.68709 10.4942 6.63998 10.4466L2.49998 6.28661C1.97715 5.75218 1.68439 5.03426 1.68439 4.28661C1.68439 3.53897 1.97715 2.82105 2.49998 2.28661C3.03275 1.76061 3.7513 1.46566 4.49998 1.46566C5.24866 1.46566 5.96721 1.76061 6.49998 2.28661C6.56196 2.3491 6.63569 2.3987 6.71693 2.43254C6.79817 2.46639 6.88531 2.48381 6.97331 2.48381C7.06132 2.48381 7.14846 2.46639 7.2297 2.43254C7.31094 2.3987 7.38467 2.3491 7.44665 2.28661C7.97942 1.76061 8.69796 1.46566 9.44665 1.46566C10.1953 1.46566 10.9139 1.76061 11.4466 2.28661C11.9767 2.81405 12.279 3.52807 12.289 4.27574C12.299 5.0234 12.0157 5.74524 11.5 6.28661V6.30661Z" fill="#9E9EA4"/>
</svg>
