<svg width="28" height="28" viewBox="0 0 28 28" fill="none" xmlns="http://www.w3.org/2000/svg">
<path d="M27.3333 7.65334C27.3343 7.47787 27.3007 7.30392 27.2343 7.14147C27.168 6.97902 27.0702 6.83127 26.9466 6.70668L21.2933 1.05335C21.1687 0.92977 21.021 0.832003 20.8585 0.76565C20.6961 0.699298 20.5221 0.665664 20.3466 0.666679C20.1712 0.665664 19.9972 0.699298 19.8348 0.76565C19.6723 0.832003 19.5246 0.92977 19.4 1.05335L15.6266 4.82668L1.05331 19.4C0.92974 19.5246 0.831973 19.6724 0.76562 19.8348C0.699267 19.9973 0.665634 20.1712 0.666648 20.3467V26C0.666648 26.3536 0.807124 26.6928 1.05717 26.9428C1.30722 27.1929 1.64636 27.3333 1.99998 27.3333H7.65331C7.83988 27.3435 8.0265 27.3143 8.20107 27.2477C8.37564 27.1811 8.53426 27.0785 8.66665 26.9467L23.16 12.3733L26.9466 8.66668C27.0683 8.53745 27.1675 8.38872 27.24 8.22668C27.2528 8.1204 27.2528 8.01296 27.24 7.90668C27.2462 7.84461 27.2462 7.78208 27.24 7.72001L27.3333 7.65334ZM7.10665 24.6667H3.33331V20.8933L16.5733 7.65334L20.3466 11.4267L7.10665 24.6667ZM22.2266 9.54668L18.4533 5.77334L20.3466 3.89335L24.1066 7.65334L22.2266 9.54668Z" fill="url(#paint0_linear_421_2269)"/>
<defs>
<linearGradient id="paint0_linear_421_2269" x1="0.525124" y1="1.64714" x2="31.9467" y2="10.2363" gradientUnits="userSpaceOnUse">
<stop stop-color="#00FFC2"/>
<stop offset="1" stop-color="#E335FF"/>
</linearGradient>
</defs>
</svg>
