<svg width="19" height="22" viewBox="0 0 19 22" fill="none" xmlns="http://www.w3.org/2000/svg">
<path d="M11.5 21L12 7.5M7.5 21L7 7.5M13.5 21H5.5M13.5 7.5H5.5M3.5 7.5C3.5 7.5 3 6 3.75 5.25C4.5 4.5 6 4.75 6 4.75C6 4.75 6 3.25 7 2.75C8 2.25 9.5 3 9.5 3C9.5 3 10.5 1.3215 12 1.75C13.5 2.1785 13.5 4 13.5 4C13.5 4 14.75 4 15.5 5C16.25 6 15.5 7.5 15.5 7.5M14.848 19.434L17.5 7.5H1.5L4.152 19.434C4.319 20.1845 4.402 20.56 4.6765 20.78C4.9505 21 5.335 21 6.1045 21H12.895C13.6645 21 14.049 21 14.323 20.78C14.5975 20.56 14.6805 20.185 14.848 19.434Z" stroke="#9E9EA4" stroke-width="2" stroke-linecap="round" stroke-linejoin="round"/>
</svg>
