<svg xmlns="http://www.w3.org/2000/svg" width="18" height="18" viewBox="0 0 18 18" fill="none">
<path d="M11.655 8.46753L7.40999 4.23003C7.34026 4.15973 7.25731 4.10394 7.16592 4.06586C7.07452 4.02778 6.9765 4.00818 6.87749 4.00818C6.77848 4.00818 6.68045 4.02778 6.58905 4.06586C6.49766 4.10394 6.41471 4.15973 6.34499 4.23003C6.2053 4.37055 6.12689 4.56064 6.12689 4.75878C6.12689 4.95692 6.2053 5.14701 6.34499 5.28753L10.0575 9.03753L6.34499 12.75C6.2053 12.8905 6.12689 13.0806 6.12689 13.2788C6.12689 13.4769 6.2053 13.667 6.34499 13.8075C6.41445 13.8784 6.49728 13.9348 6.58869 13.9734C6.68009 14.012 6.77826 14.0321 6.87749 14.0325C6.97672 14.0321 7.07488 14.012 7.16629 13.9734C7.25769 13.9348 7.34053 13.8784 7.40999 13.8075L11.655 9.57003C11.7311 9.4998 11.7919 9.41456 11.8334 9.31968C11.875 9.22481 11.8964 9.12235 11.8964 9.01878C11.8964 8.9152 11.875 8.81275 11.8334 8.71787C11.7919 8.623 11.7311 8.53776 11.655 8.46753Z" fill="#9E9EA4"/>
</svg>