<svg width="20" height="18" viewBox="0 0 20 18" fill="none" xmlns="http://www.w3.org/2000/svg">
<path d="M19.707 8.29303L11.707 0.293031C11.5671 0.153222 11.389 0.0580152 11.195 0.0194476C11.0011 -0.0191199 10.8 0.000683092 10.6173 0.0763531C10.4346 0.152023 10.2785 0.280163 10.1686 0.444573C10.0587 0.608982 10 0.802281 10 1.00003V4.54503C7.26829 4.79782 4.72923 6.06089 2.87969 8.08706C1.03015 10.1132 0.00327173 12.7567 0 15.5V17C0.000157856 17.2076 0.0649097 17.41 0.185274 17.5791C0.305639 17.7482 0.475649 17.8757 0.671726 17.9439C0.867802 18.012 1.08022 18.0174 1.27953 17.9594C1.47883 17.9014 1.65514 17.7828 1.784 17.62C2.7637 16.455 3.96576 15.4969 5.31994 14.8017C6.67413 14.1065 8.15329 13.6881 9.671 13.571C9.721 13.565 9.846 13.555 10 13.545V17C10 17.1978 10.0587 17.3911 10.1686 17.5555C10.2785 17.7199 10.4346 17.848 10.6173 17.9237C10.8 17.9994 11.0011 18.0192 11.195 17.9806C11.389 17.942 11.5671 17.8468 11.707 17.707L19.707 9.70703C19.8945 9.5195 19.9998 9.2652 19.9998 9.00003C19.9998 8.73487 19.8945 8.48056 19.707 8.29303ZM12 14.586V12.5C12 12.2348 11.8946 11.9805 11.7071 11.7929C11.5196 11.6054 11.2652 11.5 11 11.5C10.745 11.5 9.704 11.55 9.438 11.585C6.74286 11.8334 4.17742 12.8573 2.052 14.533C2.29324 12.3275 3.33954 10.2884 4.99055 8.80619C6.64157 7.324 8.78128 6.50288 11 6.50003C11.2652 6.50003 11.5196 6.39467 11.7071 6.20714C11.8946 6.0196 12 5.76525 12 5.50003V3.41403L17.586 9.00003L12 14.586Z" fill="#9E9EA4"/>
</svg>
