<svg width="21" height="21" viewBox="0 0 21 21" fill="none" xmlns="http://www.w3.org/2000/svg">
<path d="M14.21 11.21C15.1904 10.4387 15.906 9.38092 16.2572 8.18394C16.6085 6.98697 16.5779 5.71027 16.1698 4.53147C15.7617 3.35267 14.9963 2.33039 13.9801 1.60686C12.9639 0.883322 11.7474 0.494507 10.5 0.494507C9.25255 0.494507 8.03611 0.883322 7.01993 1.60686C6.00374 2.33039 5.23834 3.35267 4.83021 4.53147C4.42208 5.71027 4.39151 6.98697 4.74276 8.18394C5.09401 9.38092 5.8096 10.4387 6.79 11.21C5.11007 11.883 3.64428 12.9994 2.54889 14.4399C1.45349 15.8805 0.76956 17.5913 0.569997 19.39C0.555551 19.5213 0.567113 19.6542 0.604022 19.7811C0.640931 19.9079 0.702464 20.0263 0.785108 20.1293C0.952016 20.3375 1.19478 20.4708 1.46 20.5C1.72521 20.5292 1.99116 20.4518 2.19932 20.2849C2.40749 20.118 2.54082 19.8752 2.57 19.61C2.78958 17.6552 3.72168 15.8498 5.18822 14.5388C6.65475 13.2278 8.5529 12.503 10.52 12.503C12.4871 12.503 14.3852 13.2278 15.8518 14.5388C17.3183 15.8498 18.2504 17.6552 18.47 19.61C18.4972 19.8557 18.6144 20.0827 18.7991 20.247C18.9838 20.4114 19.2228 20.5015 19.47 20.5H19.58C19.8421 20.4698 20.0817 20.3373 20.2466 20.1313C20.4114 19.9252 20.4881 19.6624 20.46 19.4C20.2595 17.5962 19.5719 15.881 18.4708 14.4382C17.3698 12.9954 15.8969 11.8795 14.21 11.21ZM10.5 10.5C9.70887 10.5 8.93551 10.2654 8.27772 9.82588C7.61992 9.38636 7.10723 8.76164 6.80448 8.03074C6.50173 7.29983 6.42251 6.49557 6.57686 5.71964C6.7312 4.94372 7.11216 4.23099 7.67157 3.67158C8.23098 3.11217 8.94371 2.7312 9.71964 2.57686C10.4956 2.42252 11.2998 2.50173 12.0307 2.80448C12.7616 3.10724 13.3863 3.61993 13.8259 4.27772C14.2654 4.93552 14.5 5.70888 14.5 6.5C14.5 7.56087 14.0786 8.57828 13.3284 9.32843C12.5783 10.0786 11.5609 10.5 10.5 10.5Z" fill="#7E7E87"/>
</svg>
